<svg width="70" height="70" viewBox="0 0 70 70" fill="none" xmlns="http://www.w3.org/2000/svg">
<path d="M35 65.625C51.9137 65.625 65.625 51.9137 65.625 35C65.625 18.0863 51.9137 4.375 35 4.375C18.0863 4.375 4.375 18.0863 4.375 35C4.375 51.9137 18.0863 65.625 35 65.625Z" fill="url(#paint0_linear_6_48)"/>
<path d="M50.2832 22.3317C50.5557 20.5698 48.8806 19.179 47.3139 19.8669L16.1105 33.5667C14.9871 34.06 15.0692 35.7619 16.2345 36.1329L22.6693 38.1822C23.8976 38.5733 25.2273 38.3709 26.2999 37.63L40.8078 27.6069C41.2453 27.3046 41.7222 27.9267 41.3483 28.3119L30.9052 39.0788C29.8922 40.1233 30.0932 41.8932 31.3119 42.6573L43.0041 49.9894C44.3155 50.8117 46.0025 49.9857 46.2477 48.4008L50.2832 22.3317Z" fill="white"/>
<defs>
<linearGradient id="paint0_linear_6_48" x1="35" y1="4.375" x2="35" y2="65.625" gradientUnits="userSpaceOnUse">
<stop stop-color="#37BBFE"/>
<stop offset="1" stop-color="#007DBB"/>
</linearGradient>
</defs>
</svg>
