<svg width="60" height="60" viewBox="0 0 60 60" fill="none" xmlns="http://www.w3.org/2000/svg">
<g clip-path="url(#clip0_6_51)">
<path d="M30 60C46.5685 60 60 46.5685 60 30C60 13.4315 46.5685 0 30 0C13.4315 0 0 13.4315 0 30C0 46.5685 13.4315 60 30 60Z" fill="#2787F5"/>
<path d="M34.326 15.9082H25.674C17.7779 15.9082 15.9082 17.7779 15.9082 25.674V34.326C15.9082 42.2221 17.7779 44.0918 25.674 44.0918H34.326C42.2221 44.0918 44.0918 42.2221 44.0918 34.326V25.674C44.0918 17.7779 42.2021 15.9082 34.326 15.9082ZM38.6619 36.0164H36.6111C35.8354 36.0164 35.5969 35.4 34.2047 33.9879C32.9912 32.816 32.4545 32.6555 32.1539 32.6555C31.7361 32.6555 31.6166 32.7727 31.6166 33.3516V35.2014C31.6166 35.6988 31.4572 35.9971 30.1447 35.9971C27.9768 35.9971 25.5703 34.6846 23.8793 32.2377C21.3334 28.6576 20.6373 25.9723 20.6373 25.4156C20.6373 25.1174 20.7545 24.8391 21.3334 24.8391H23.3842C23.9016 24.8391 24.1002 25.0775 24.2988 25.6348C25.3131 28.5586 27.0041 31.1244 27.6973 31.1244C27.9557 31.1244 28.0752 31.0072 28.0752 30.3486V27.3252C27.9955 25.933 27.2596 25.8135 27.2596 25.3166C27.2596 25.0781 27.4582 24.8391 27.777 24.8391H30.9996C31.4373 24.8391 31.5961 25.0775 31.5961 25.5949V29.6719C31.5961 30.1096 31.7947 30.2684 31.9143 30.2684C32.1727 30.2684 32.3918 30.109 32.8688 29.632C34.3406 27.9814 35.3947 25.4355 35.3947 25.4355C35.5342 25.1373 35.7727 24.859 36.29 24.859H38.3408C38.9572 24.859 39.0967 25.1771 38.9572 25.6148C38.6988 26.8084 36.1928 30.3486 36.1928 30.3486C35.9742 30.7066 35.8945 30.866 36.1928 31.2633C36.4113 31.5615 37.1303 32.1779 37.6049 32.7352C38.4803 33.7312 39.1564 34.565 39.3352 35.1416C39.5373 35.7182 39.2385 36.0164 38.6619 36.0164Z" fill="white"/>
</g>
<defs>
<clipPath id="clip0_6_51">
<rect width="60" height="60" fill="white"/>
</clipPath>
</defs>
</svg>
